<?xml version="1.0" encoding="utf-8"?>
<!-- Generator: Adobe Illustrator 23.0.2, SVG Export Plug-In . SVG Version: 6.00 Build 0)  -->
<svg version="1.1" id="Layer_1" xmlns="http://www.w3.org/2000/svg" xmlns:xlink="http://www.w3.org/1999/xlink" x="0px" y="0px"
	 viewBox="0 0 143.2007 248.0458" enable-background="new 0 0 143.2007 248.0458" xml:space="preserve">
<g>
	<path d="M72.8804,29.1483c-0.7393,2.2276-1.1446,4.6065-1.1446,7.0821c0,12.4277,10.0752,22.5,22.5,22.5
		c12.4278,0,22.5-10.0723,22.5-22.5c0-3.3115-0.7207-6.4522-2.0058-9.2832c-5.3535,1.6455-12.5391,3.0302-21.4844,3.4306
		C85.0112,30.746,78.188,30.1513,72.8804,29.1483z"/>
	<path d="M92.7036,69.5761c2.9424,0.4609,4.1406-1.2305,4.6992-2.6279l-8.3837-1.6319
		C89.0591,66.8398,89.5474,69.08,92.7036,69.5761z"/>
	<path d="M131.7583,77.4765c-4.9961-2.918-10.4228-4.8252-14.7383-6.1485c-2.2119-0.6709-4.1172-1.1679-5.4736-1.498
		c-1.0215-0.4981-2.1641-0.7852-3.377-0.7852l-1.3945-0.2715c-5.1494,4.3829-10.4375,6.0245-10.4375,6.0245
		s1.8955,4.8671,1.5059,10.0254c-0.3926,5.1591-4.4512,9.2216-4.4512,9.2216l-3.4004-7.1982l-5.4434,5.8096
		c0,0-2.6191-5.1104-1.4101-10.1416c1.21-5.0303,4.5059-9.0821,4.5059-9.0821s-5.1446-3.6103-8.7735-10.0918l-14.9502-2.9111
		c-0.6601,0-1.2978,0.0918-1.9092,0.2471c-3.6621-0.0694-7.0097,2.3916-7.915,6.0927h-0.002l-0.0048,0.0186h0.0009
		c-0.1191,0.5254-2.9345,11.1103-10.1484,21.626c-3.665,5.3672-8.4258,10.7002-14.4316,14.8808
		c-6.0225,4.1846-13.2481,7.2852-22.3789,8.2959c-4.3907,0.4815-7.5645,4.4317-7.0831,8.8252
		c0.4493,4.0957,3.9151,7.1309,7.9424,7.1309c0.291,0,0.584-0.0156,0.8799-0.0479c12.0567-1.3086,22.1485-5.6494,30.167-11.3408
		c9.3447-6.6318,15.9463-14.9307,20.5928-22.5742l5.8105,42.9668c0,1.3691,0.3594,2.6533,0.9844,3.7685
		c0.1543,0.4249,0.3301,0.8457,0.5352,1.2608l0.7324,1.4834l14.2597,28.8623l-37.54,18.7725
		c-6.1768,3.0869-8.6787,10.5957-5.5928,16.7695c2.1905,4.3818,6.6065,6.914,11.1924,6.914c1.8789,0,3.7861-0.4248,5.5811-1.3222
		l48.664-24.335c6.1416-3.0703,8.6573-10.5605,5.6182-16.7158l-12.8281-25.9688l2.3467,0.2383l12.2753,24.8467
		c3.5235,7.1318,0.5987,15.8301-6.5175,19.3887l-1.2891,0.6445l-22.3115,38.0654c-3.4912,5.9551-1.4932,13.6143,4.4648,17.1055
		c1.9844,1.1631,4.1602,1.7168,6.3067,1.7168c4.291,0,8.4697-2.2109,10.7959-6.1797l31.0664-53.0019
		c2.2597-3.8526,2.2861-8.6504,0.0693-12.5264l-23.7988-41.6143l1.0576-11.2646c-2.9658,1.1699-6.1465,2.3457-9.5684,3.5342
		c-1.0547,0.3672-2.1582,0.5547-3.2773,0.5547c-4.2549,0-8.0547-2.7051-9.4492-6.7266c-0.875-2.5244-0.7149-5.2393,0.4531-7.6445
		c1.167-2.4014,3.2021-4.2061,5.7266-5.0811c7.164-2.4785,13.3476-4.9775,18.25-7.3642l1.247-13.2813
		c1.5508,0.5254,3.1602,1.124,4.7022,1.7949c2.7617,1.1768,5.2666,2.625,6.5771,3.7774c0.4092,0.3467,0.6953,0.6543,0.8711,0.872
		c-0.3115,0.4707-1.0713,1.3623-2.4033,2.4893c-1.0772,0.9111-2.5215,1.9727-4.4668,3.1133
		c-0.0029,0.0019-0.0059,0.0029-0.0088,0.0049c-4.9892,3.0048-12.8496,6.5869-24.1162,10.4824
		c-4.1768,1.4473-6.3896,6.0039-4.9424,10.1806c1.1475,3.3057,4.2451,5.3819,7.5596,5.3819c0.8691,0,1.7529-0.1426,2.6211-0.4434
		c11.9385-4.1445,20.6631-8.0215,27.1152-11.8847c0.001-0.001,0.002-0.001,0.0029-0.002l0,0
		c1.9795-1.1953,3.7413-2.3877,5.3272-3.6123c1.9932-1.54,3.7021-3.1318,5.1445-4.8584c2.5586-3.0508,4.335-6.8809,4.3223-10.9629
		c0.0107-3.0635-1.0059-5.9014-2.3887-8.0918C138.3491,81.831,135.0728,79.4628,131.7583,77.4765z"/>
	<path d="M93.186,27.9638c17.5166-0.7852,28.3018-5.3389,31.7432-8.2481c0.9346-0.79,1.332-1.4599,1.1699-1.8984
		c-0.7607-2.0518-15.9511,2.4531-15.9511,2.4531c-0.3213-2.543-1.2032-4.3847-2.4297-10.1387
		C106.854,6.0712,100.8218-0.38,91.9351,0.0175c-8.8868,0.3984-14.3174,7.3623-14.8164,11.4853
		c-0.7071,5.8399-1.4209,7.753-1.5137,10.3155c0,0-15.5332-3.1299-16.1055-1.0176c-0.1221,0.4482,0.3291,1.0762,1.3194,1.7744
		C64.4898,25.1649,75.6441,28.7489,93.186,27.9638z"/>
</g>
</svg>
