<?xml version="1.0" encoding="utf-8"?>
<!-- Generator: Adobe Illustrator 26.0.0, SVG Export Plug-In . SVG Version: 6.00 Build 0)  -->
<svg version="1.1" id="Layer_1" xmlns="http://www.w3.org/2000/svg" xmlns:xlink="http://www.w3.org/1999/xlink" x="0px" y="0px"
	 viewBox="0 0 128 128" style="enable-background:new 0 0 128 128;" xml:space="preserve">
<path d="M31.6,27.4c3,2.5,7.3,2.4,10.2-0.1c3.6-2.8,5.9-7,6.1-11.6c0-6.8-4.2-11.9-9.6-12.6C32.7,2.2,27.2,6,25.9,11.7
	C24.5,17,27.2,24.1,31.6,27.4z"/>
<path d="M85.2,52.3c0-1.7-1.1-3.3-2.7-3.9c-0.5-0.2-1-0.3-1.5-0.4c-0.1,0-0.2,0-0.3,0l-13.5,0.7l-2.6-3.1L57,36.4
	c-0.2-0.3-0.5-0.5-0.7-0.8c0,0-0.1-0.1-0.2-0.1c-0.6-0.5-1.3-0.8-2.1-1c0,0-0.1,0-0.1,0c-0.3-0.1-0.7-0.2-1-0.2
	c-2.3-0.3-9.4-0.9-11-1c-0.3,0-0.7,0-0.9,0.2c-0.4,0.3-0.7,0.8-0.7,1.4c0,0.2-0.1,5.4-0.2,6.9c0,0.2-0.1,0.3-0.3,0.3
	c-0.1,0-0.2-0.1-0.2-0.1c-1-1.6-3.5-5.2-4.9-7c-0.8-0.9-1.9-1.5-3.1-1.6c-2.4,0-9.6,0.8-10.8,0.9c-0.4,0.1-0.8,0.1-1.1,0.2
	c-0.2,0.1-0.4,0.1-0.6,0.2c0,0,0,0,0,0c-1.5,0.5-2.8,1.6-3.6,2.9c-0.1,0.2-0.3,0.5-0.4,0.7L7.9,55l-0.3,0.6
	c-0.5,1.1-0.5,2.3-0.1,3.4l0.7,2L14,76.6c0.8,2.2,3.2,3.4,5.4,2.8c0.6-0.2,1.2-0.5,1.7-0.9c0.1-0.1,0.2-0.2,0.3-0.3
	c1.1-1.1,1.5-2.8,1.1-4.3L21.2,69l-3.1-10.9l2.7-4.2c0,0.3,0,0.6,0,0.9c0.1,1.8,0.1,3.7,0.1,5.5l0,0.2l3.6,12.8
	c0.5,1.9,0.2,3.9-0.9,5.5c-0.2,0.3-0.5,0.6-0.8,0.9c-0.2,0.2-0.3,0.3-0.5,0.5c-0.3,0.2-0.6,0.5-0.9,0.6c0.2,8.2,0.5,16.4,0.7,24.6
	c0.1,2.9,0.2,7.3,0.3,11c0.1,4.8,4,8.6,8.8,8.6l5.5,0l5.5,0c4.8,0,8.7-3.8,8.8-8.6c0.1-3.7,0.2-8.1,0.3-11
	c0.5-16.8,0.9-33.7,1.4-50.5c0-0.3,0-0.8,0-1.4c0-0.8,0.1-1.7,0.1-2.5c0,0,7.1,7,9,8.6c0.1,0.1,0.2,0.1,0.2,0.2
	c0.3,0.2,0.7,0.5,1.1,0.6c0.3,0,0.6,0,0.9,0l17-3.7C83.5,56.6,85.3,54.6,85.2,52.3z"/>
<path d="M120.5,54.5l-4.9-4.5c-1.4-1.3-3.5-1.5-5.2-0.6l-5.5,3.2l0-4.2c0-5.5-3.4-10.5-8.5-12.7c-0.3-2-2-3.6-4.1-3.6l-3.7,0
	c-2.3,0-4.1,1.9-4.1,4.1c0,2.3,1.9,4.1,4.1,4.1l3.7,0c1.2,0,2.4-0.6,3.2-1.5c3.7,1.7,6,5.4,6.1,9.5l0,6.1L81.8,65.9
	c-2.3,1.3-3.4,3.9-2.9,6.4l9.5,52.7h32.3V54.9C120.7,54.8,120.6,54.6,120.5,54.5z"/>
</svg>
